<svg xmlns="http://www.w3.org/2000/svg" width="409.609" height="101.429" viewBox="0 0 409.609 101.429">
  <g id="logo-name-simple" transform="translate(508.609 -449)">
    <g id="name-simple" transform="translate(-615 413)">
      <text id="Alpacko" transform="translate(226 110)" fill="#fff" font-size="69" font-family="SegoeUI, Segoe UI" letter-spacing="0.11em"><tspan x="0" y="0">Alpacko</tspan></text>
      <g id="Group_27" data-name="Group 27" transform="translate(1 3)">
        <path id="Path_31" data-name="Path 31" d="M219.247,120.524h62.846" transform="translate(18.362 -4)" fill="none" stroke="#ff9932" stroke-width="3"/>
        <path id="Path_32" data-name="Path 32" d="M319.249,120.524H497.156" transform="translate(1 -4)" fill="none" stroke="#ff9932" stroke-width="3"/>
      </g>
    </g>
    <g id="Group_61" data-name="Group 61" transform="translate(-721 409.023)">
      <path id="Path_50" data-name="Path 50" d="M76.3,662.836,41.453,671.4,88.9,681.695l35.912-10.25Z" transform="translate(185.05 -582.212)" fill="#70422b"/>
      <path id="Path_37" data-name="Path 37" d="M319.538,910.289s14.319.655,19.1-3.358c2.423-2.036-3.883-9.646-2.74-10.432,3.619-2.486.5-7.614.5-7.583,2.549-1.982,10.919-1.825,10.95-1.825,2.549.094,2.265-3.87,2.265-3.9a5.168,5.168,0,0,0,3.587-3.241c1.479-6.1-1.227-7.67-1.274-7.733-11.563-1.7-11-6.639-11.029-6.608,5.318-3.744-7.481-6.482-7.481-6.513.157-4.248-5.538-3.3-5.569-3.335,1.919-6.167,2.045-9.156,1.951-9.219-7.206-5.475-12.972,13.546-13,13.507-8.37,2.163-5.066,8.149-5.034,8.094-5.538,3.658-4.185,8.559-4.122,8.622-1.888,1.322-2.159,5.9-2.069,5.808-1.438,2.337-1.348,6.021-1.348,6.021s-3.276,2.9-1.524,8.622c.028.052,1.094.607-1.527,5.2" transform="translate(-43.82 -805.573)" fill="#fff"/>
      <path id="Path_46" data-name="Path 46" d="M125.6,730.286l35.967-9.931V678.1L125.6,688.326Z" transform="translate(148.284 -588.881)" fill="#df8123"/>
      <path id="Path_47" data-name="Path 47" d="M41.4,720.494l47.482,9.96v-42L41.4,678.481Z" transform="translate(185.074 -589.048)" fill="#ff9932"/>
      <path id="Path_48" data-name="Path 48" d="M30.529,678.069l-14.138,14.04,47.253,10.048,14.337-13.866Z" transform="translate(196 -588.868)" fill="#f5c288"/>
      <path id="Path_49" data-name="Path 49" d="M202.328,690.991l-12.875-12.853V687.9Z" transform="translate(120.386 -588.898)" fill="#a56330"/>
      <path id="Path_51" data-name="Path 51" d="M144.827,705.789l-8.493,9.617c.052,0,5.775-1.568,5.775-1.568.026.026,0,11.5,0,11.5l5.671-1.463V712.531l4.861-1.176Z" transform="translate(143.595 -600.979)" fill="#28a5cd"/>
      <path id="Path_54" data-name="Path 54" d="M1427.012,632.06s4.51,4.8,7.759-.242c.049.049-1.181-1.056-2.013-1.022-.017-.017-1.032,1.237-5.745,1.265" transform="translate(-1140.575 -565.785)" fill="#919191"/>
    </g>
  </g>
</svg>
